<svg xmlns="http://www.w3.org/2000/svg" xmlns:xlink="http://www.w3.org/1999/xlink" width="283.461" height="90.69" viewBox="0 0 283.461 90.69">
    <defs>
        <linearGradient id="linear-gradient" x1=".12" y1="-.033" x2=".943" y2=".722" gradientUnits="objectBoundingBox">
            <stop offset="0" stop-color="#b5179e"/>
            <stop offset="1" stop-color="#3a0ca3"/>
        </linearGradient>
        <linearGradient id="linear-gradient-2" x1=".175" y1=".064" x2="2.268" y2="2.869" xlink:href="#linear-gradient"/>
        <style>
            .cls-3{fill:#26086b}
        </style>
    </defs>
    <g id="Koppeltaal-Logo-FC-RGB" transform="translate(.001)">
        <g id="Group_1104" data-name="Group 1104">
            <g id="Group_1102" data-name="Group 1102">
                <path id="Path_472" data-name="Path 472" d="M56.14 90.66q-.45 0-.9-.03c-.3-.02-.6-.04-.91-.08a16.684 16.684 0 0 1-6.71-2.28 17.748 17.748 0 0 1-5.05-4.54 18.679 18.679 0 0 1-3.04-6 19.182 19.182 0 0 1-.75-6.83 14.871 14.871 0 0 0-.6-5.47 12.575 12.575 0 0 0-2.29-4.33 10.458 10.458 0 0 0-3.48-2.8 9.527 9.527 0 0 0-4.27-.99 11.432 11.432 0 0 1-5.2-1.21 11.053 11.053 0 0 1-3.83-3.21 12.414 12.414 0 0 1-2.16-4.58 14.844 14.844 0 0 1-.28-5.42A17.249 17.249 0 0 1 18 38.14a17.74 17.74 0 0 1 2.52-4.09 17.263 17.263 0 0 1 3.47-3.21 15.2 15.2 0 0 1 4.2-2.07l.63-.18.64-.15.65-.12.66-.09c.18-.02.36-.04.53-.07s.36-.06.53-.1.36-.08.53-.12.36-.09.53-.15a13.112 13.112 0 0 0 3.61-1.76 15.031 15.031 0 0 0 3.06-2.8 14.321 14.321 0 0 0 2.16-3.52 12.081 12.081 0 0 0 .96-3.87 14.723 14.723 0 0 1 1.16-4.71 17.386 17.386 0 0 1 2.57-4.18 19.447 19.447 0 0 1 8.28-5.85c.23-.08.46-.16.7-.24s.47-.15.71-.21.48-.13.73-.18.49-.11.74-.16A16.961 16.961 0 0 1 60.76 0a14.871 14.871 0 0 1 2.69.24 12.744 12.744 0 0 1 4.99 2.03 11.135 11.135 0 0 1 3.52 3.93 11.544 11.544 0 0 1 1.33 5.49 14.15 14.15 0 0 1-1.04 5.25 17.38 17.38 0 0 1-2.86 4.72 19.5 19.5 0 0 1-4.24 3.75 18.972 18.972 0 0 1-5.18 2.38c-.26.07-.51.14-.77.2s-.51.12-.77.17-.52.09-.78.13-.52.07-.79.1a12.827 12.827 0 0 0-1.29.19c-.21.04-.42.09-.63.14s-.41.1-.62.16a14.541 14.541 0 0 0-4.06 1.88 14.961 14.961 0 0 0-3.27 2.93 14.4 14.4 0 0 0-2.27 3.72 13.383 13.383 0 0 0-1.02 4.28 12.394 12.394 0 0 0 .62 4.83 11.357 11.357 0 0 0 2.39 4.01 11.545 11.545 0 0 0 3.9 2.78 12.532 12.532 0 0 0 5.07 1.04h.16a16.54 16.54 0 0 1 6.5 1.33 17.509 17.509 0 0 1 5.58 3.8 18.465 18.465 0 0 1 3.91 5.86 19.2 19.2 0 0 1 .3 14.02 17.875 17.875 0 0 1-3.29 5.53 16.961 16.961 0 0 1-4.91 3.9 16.162 16.162 0 0 1-5.97 1.81c-.3.03-.59.05-.89.07-.26.01-.52.02-.78.02z" style="fill:url(#linear-gradient)"/>
            </g>
            <g id="Group_1103" data-name="Group 1103">
                <path id="Path_473" data-name="Path 473" d="M8.14 33.12a8.16 8.16 0 0 1-3.25-.64 7.485 7.485 0 0 1-3.07-2.39 8.863 8.863 0 0 1-1.61-3.67 12.249 12.249 0 0 1-.01-4.48 16.2 16.2 0 0 1 1.28-4.02 17.732 17.732 0 0 1 2.22-3.55 16.784 16.784 0 0 1 2.95-2.89 14.338 14.338 0 0 1 3.5-2c.18-.07.35-.13.52-.19s.35-.12.53-.17.36-.1.54-.14l.54-.12a10.347 10.347 0 0 1 1.9-.18 8.3 8.3 0 0 1 2.3.31 7.48 7.48 0 0 1 3.37 1.97 8.3 8.3 0 0 1 2.05 3.54 11.457 11.457 0 0 1 .32 4.71 15.3 15.3 0 0 1-1.25 4.41 17.6 17.6 0 0 1-2.43 3.93 17.3 17.3 0 0 1-3.3 3.11 13.879 13.879 0 0 1-3.85 1.96c-.19.06-.38.11-.57.16s-.38.09-.57.13-.38.07-.57.1-.39.05-.58.07c-.31.02-.64.04-.96.04z" style="fill:url(#linear-gradient-2)"/>
            </g>
        </g>
        <g id="Group_1105" data-name="Group 1105">
            <path id="Path_474" data-name="Path 474" class="cls-3" d="m102.19 54.08-7.17-11.36h-.07v11.36h-6.71V27.81h6.71v11.82h.07l7.42-11.82h7.03l-8.7 13.1 9.27 13.17h-7.85z"/>
            <path id="Path_475" data-name="Path 475" class="cls-3" d="M120.11 54.68a10.471 10.471 0 1 1 10.61-10.54 10.3 10.3 0 0 1-10.61 10.54zm4.72-10.47a4.731 4.731 0 1 0-4.73 4.97 4.849 4.849 0 0 0 4.73-4.97z"/>
            <path id="Path_476" data-name="Path 476" class="cls-3" d="M133.75 60.65V34.38h5.54v2.17h.11a7.6 7.6 0 0 1 6.18-2.84c5.61 0 9.58 4.58 9.58 10.72 0 5.61-3.94 10.33-9.58 10.33a7.654 7.654 0 0 1-5.93-2.45v8.34zm15.51-16.4a4.935 4.935 0 1 0-4.94 5 4.954 4.954 0 0 0 4.94-5z"/>
            <path id="Path_477" data-name="Path 477" class="cls-3" d="M158.25 60.65V34.38h5.54v2.17h.11a7.6 7.6 0 0 1 6.18-2.84c5.61 0 9.58 4.58 9.58 10.72 0 5.61-3.94 10.33-9.58 10.33a7.654 7.654 0 0 1-5.93-2.45v8.34zm15.51-16.4a4.935 4.935 0 1 0-4.94 5 4.954 4.954 0 0 0 4.94-5z"/>
            <path id="Path_478" data-name="Path 478" class="cls-3" d="M187.44 46.02a4.407 4.407 0 0 0 4.61 3.73 4.135 4.135 0 0 0 3.59-1.85h6.03c-1.88 4.3-5.47 6.82-9.62 6.82a10.511 10.511 0 1 1 10.29-10.26 7.943 7.943 0 0 1-.14 1.56h-14.76zm9.01-3.97a4.656 4.656 0 0 0-8.95 0z"/>
            <path id="Path_479" data-name="Path 479" class="cls-3" d="M205.32 54.08V27.81h5.89v26.27z"/>
            <path id="Path_480" data-name="Path 480" class="cls-3" d="M215.24 54.08V27.81h5.89v6.57h4.37v5.89h-4.37v13.81z"/>
            <path id="Path_481" data-name="Path 481" class="cls-3" d="M242.86 54.08v-2.13h-.07c-.85 1.74-3.19 2.8-5.79 2.8-5.82 0-9.87-4.58-9.87-10.54 0-5.82 4.22-10.51 9.87-10.51a6.7 6.7 0 0 1 5.79 2.77h.07v-2.09h5.89v19.7h-5.89zm0-9.87a5 5 0 0 0-5-5.01 5.025 5.025 0 1 0 5 5.01z"/>
            <path id="Path_482" data-name="Path 482" class="cls-3" d="M267.59 54.08v-2.13h-.07c-.85 1.74-3.19 2.8-5.79 2.8-5.82 0-9.87-4.58-9.87-10.54 0-5.82 4.22-10.51 9.87-10.51a6.7 6.7 0 0 1 5.79 2.77h.07v-2.09h5.89v19.7h-5.89zm0-9.87a5 5 0 0 0-5-5.01 5.025 5.025 0 1 0 5 5.01z"/>
            <path id="Path_483" data-name="Path 483" class="cls-3" d="M277.57 54.08V27.81h5.89v26.27z"/>
        </g>
    </g>
</svg>
